<svg width="296" height="44" viewBox="0 0 296 44" fill="none" xmlns="http://www.w3.org/2000/svg">
<g opacity="0.5">
<path opacity="0.5" d="M22 42.1061C33.0457 42.1061 42 33.1281 42 22.0531C42 10.9781 33.0457 2 22 2C10.9543 2 2 10.9781 2 22.0531C2 33.1281 10.9543 42.1061 22 42.1061Z" fill="url(#paint0_linear)"/>
</g>
<path d="M22.0397 42.5541C33.4066 42.5541 42.6169 33.3157 42.6169 21.925C42.6169 10.5344 33.4066 1.2959 22.0397 1.2959C10.6727 1.2959 1.46251 10.5344 1.46251 21.925C1.46251 33.3157 10.6727 42.5541 22.0397 42.5541Z" fill="#FDF2F2" stroke="white" stroke-width="2"/>
<path d="M32.8102 23.8595C32.8102 30.3899 28.1317 33.6031 22.0552 33.6031C15.9788 33.6031 10.8101 30.3899 10.8101 23.8595C10.8101 17.3292 15.7354 12.036 21.8102 12.036C27.8849 12.036 32.8102 17.324 32.8102 23.8595Z" fill="#333333"/>
<path d="M22.0552 41.632C25.8815 41.6387 29.625 40.5157 32.8189 38.4032C32.0975 34.451 29.3518 34.2244 29.3518 34.2244H14.2133C14.2133 34.2244 11.6247 34.4372 10.8135 38.0744C14.1046 40.3955 18.0316 41.6382 22.0552 41.632Z" fill="#FACA15"/>
<path opacity="0.1" d="M18.8004 29.3984H24.8562V34.2555C24.8569 34.6551 24.7788 35.0509 24.6266 35.4202C24.4743 35.7894 24.2509 36.1249 23.969 36.4074C23.6871 36.6899 23.3524 36.9138 22.984 37.0662C22.6156 37.2186 22.2208 37.2966 21.8223 37.2957V37.2957C21.0195 37.2957 20.2495 36.976 19.6818 36.4068C19.1142 35.8376 18.7953 35.0656 18.7953 34.2607V29.3984H18.8004Z" fill="black"/>
<path d="M19.3768 29.1787H24.2763C24.4296 29.1787 24.5767 29.2397 24.6851 29.3485C24.7935 29.4572 24.8544 29.6046 24.8544 29.7583V34.0358C24.8544 34.4348 24.776 34.8299 24.6235 35.1984C24.4711 35.567 24.2477 35.9018 23.966 36.1837C23.6844 36.4656 23.3501 36.6891 22.9822 36.8413C22.6144 36.9935 22.2202 37.0715 21.8223 37.0708V37.0708C21.0195 37.0708 20.2495 36.751 19.6818 36.1819C19.1142 35.6127 18.7953 34.8407 18.7953 34.0358V29.7566C18.7953 29.6029 18.8562 29.4554 18.9646 29.3467C19.073 29.238 19.2201 29.1769 19.3734 29.1769L19.3768 29.1787Z" fill="#FDA57D"/>
<path opacity="0.1" d="M18.8125 31.6963C20.7641 32.4277 22.9125 32.4338 24.8683 31.7136V30.9679H18.8125V31.6963Z" fill="black"/>
<path d="M21.8499 32.1012C26.6431 32.1012 30.5288 28.2052 30.5288 23.3993C30.5288 18.5933 26.6431 14.6973 21.8499 14.6973C17.0566 14.6973 13.171 18.5933 13.171 23.3993C13.171 28.2052 17.0566 32.1012 21.8499 32.1012Z" fill="#FDA57D"/>
<path opacity="0.1" d="M11.8473 23.9686C11.8473 23.9686 17.2524 23.311 21.339 18.0577C21.339 18.0577 26.7441 24.0239 30.5098 23.3664C30.5098 23.3664 32.6929 21.0668 30.5098 18.7689C28.3267 16.471 26.6337 13.5692 23.7413 13.9516C20.8489 14.334 17.299 14.4984 15.7717 15.8671C14.2444 17.2358 11.8473 23.9686 11.8473 23.9686Z" fill="black"/>
<path d="M11.8473 23.8595C11.8473 23.8595 17.2524 23.202 21.339 17.9486C21.339 17.9486 26.7441 23.9149 30.5098 23.2574C30.5098 23.2574 32.6929 20.9577 30.5098 18.6598C28.3267 16.3619 26.6337 13.4601 23.7413 13.8425C20.8489 14.2249 17.3059 14.3824 15.7786 15.7667C14.2513 17.151 11.8473 23.8595 11.8473 23.8595Z" fill="#333333"/>
<path d="M13.1675 24.9099C13.6135 24.9099 13.9751 24.2305 13.9751 23.3924C13.9751 22.5543 13.6135 21.8748 13.1675 21.8748C12.7214 21.8748 12.3598 22.5543 12.3598 23.3924C12.3598 24.2305 12.7214 24.9099 13.1675 24.9099Z" fill="#FDA57D"/>
<path d="M30.527 24.9099C30.9731 24.9099 31.3347 24.2305 31.3347 23.3924C31.3347 22.5543 30.9731 21.8748 30.527 21.8748C30.081 21.8748 29.7194 22.5543 29.7194 23.3924C29.7194 24.2305 30.081 24.9099 30.527 24.9099Z" fill="#FDA57D"/>
<g opacity="0.5">
<path opacity="0.5" d="M58 42.1061C69.0457 42.1061 78 33.1281 78 22.0531C78 10.9781 69.0457 2 58 2C46.9543 2 38 10.9781 38 22.0531C38 33.1281 46.9543 42.1061 58 42.1061Z" fill="url(#paint1_linear)"/>
</g>
<path d="M58 42.5732C69.367 42.5732 78.5772 33.3347 78.5772 21.9441C78.5772 10.5534 69.367 1.31494 58 1.31494C46.633 1.31494 37.4228 10.5534 37.4228 21.9441C37.4228 33.3347 46.633 42.5732 58 42.5732Z" fill="#FDF2F2" stroke="white" stroke-width="2"/>
<path d="M58.0552 41.6286C61.8809 41.6349 65.6238 40.5119 68.8172 38.3997C68.0958 34.4476 65.3501 34.2209 65.3501 34.2209H50.2133C50.2133 34.2209 47.6247 34.4338 46.8135 38.071C50.1046 40.392 54.0316 41.6348 58.0552 41.6286V41.6286Z" fill="#9061F9"/>
<path d="M57.8499 30.2134C62.6431 30.2134 66.5288 26.3174 66.5288 21.5115C66.5288 16.7055 62.6431 12.8095 57.8499 12.8095C53.0566 12.8095 49.171 16.7055 49.171 21.5115C49.171 26.3174 53.0566 30.2134 57.8499 30.2134Z" fill="#333333"/>
<path opacity="0.1" d="M54.8004 29.4036H60.8562V34.2607C60.8562 35.0656 60.5372 35.8376 59.9696 36.4068C59.4019 36.976 58.632 37.2957 57.8291 37.2957C57.0263 37.2957 56.2564 36.976 55.6887 36.4068C55.1211 35.8376 54.8021 35.0656 54.8021 34.2607V29.4036H54.8004Z" fill="black"/>
<path d="M55.3786 29.1786H60.278C60.4314 29.1786 60.5784 29.2397 60.6868 29.3484C60.7953 29.4571 60.8562 29.6046 60.8562 29.7583V34.0358C60.8562 34.8407 60.5373 35.6127 59.9696 36.1819C59.4019 36.751 58.632 37.0708 57.8292 37.0708C57.0264 37.0708 56.2564 36.751 55.6887 36.1819C55.1211 35.6127 54.8022 34.8407 54.8022 34.0358V29.7583C54.8022 29.6049 54.8628 29.4577 54.9709 29.349C55.0789 29.2404 55.2255 29.1791 55.3786 29.1786Z" fill="#BE7C5E"/>
<path opacity="0.1" d="M54.8125 31.6963C56.7641 32.4277 58.9125 32.4338 60.8682 31.7136V30.9679H54.8125V31.6963Z" fill="black"/>
<path d="M57.8499 32.1029C62.6431 32.1029 66.5288 28.2069 66.5288 23.401C66.5288 18.595 62.6431 14.699 57.8499 14.699C53.0566 14.699 49.171 18.595 49.171 23.401C49.171 28.2069 53.0566 32.1029 57.8499 32.1029Z" fill="#BE7C5E"/>
<path d="M52.5914 19.8123C52.6932 19.4368 52.8209 19.0232 53.1575 18.8277C53.4232 18.6719 53.7529 18.6962 54.06 18.7117C56.4589 18.8433 58.837 18.2947 61.1702 17.722C62.5043 17.3949 63.9315 16.997 64.7944 15.919C65.6572 14.8409 64.532 11.4529 63.2187 11.0532C62.3558 10.7885 61.3549 11.2816 60.5369 10.894C60.1727 10.721 59.9052 10.3974 59.5912 10.1448C58.9474 9.62567 58.1208 9.41629 57.32 9.21903C56.3847 8.98716 55.3734 8.76049 54.4846 9.13251C53.7943 9.41975 53.2904 10.0271 52.6363 10.387C51.392 11.0792 49.875 10.7573 48.4496 10.7539C47.9681 10.7539 47.3934 10.8508 47.2018 11.2937C47.0724 11.5948 47.1759 11.9374 47.1897 12.2645C47.2312 13.3027 46.3769 14.1107 45.6607 14.86C44.9445 15.6092 44.268 16.6786 44.7202 17.6095C44.8927 17.9642 45.2085 18.2324 45.388 18.5837C45.6969 19.1928 45.5416 19.9282 45.6538 20.6013C45.7661 21.112 45.9565 21.6023 46.2181 22.0548C46.7497 23.093 49.4194 28.682 50.6465 27.2614C51.2401 26.5693 51.3368 24.569 51.5767 23.6692C51.908 22.3761 52.2463 21.0904 52.5914 19.8123Z" fill="#333333"/>
<path d="M51.675 24.6019C52.1211 24.6019 52.4827 23.9225 52.4827 23.0844C52.4827 22.2462 52.1211 21.5668 51.675 21.5668C51.229 21.5668 50.8674 22.2462 50.8674 23.0844C50.8674 23.9225 51.229 24.6019 51.675 24.6019Z" fill="#BE7C5E"/>
<path d="M85.3487 24.5465C85.7948 24.5465 86.1564 23.8671 86.1564 23.029C86.1564 22.1909 85.7948 21.5114 85.3487 21.5114C84.9026 21.5114 84.541 22.1909 84.541 23.029C84.541 23.8671 84.9026 24.5465 85.3487 24.5465Z" fill="#FDB797"/>
<g opacity="0.5">
<path opacity="0.5" d="M94 42.1061C105.046 42.1061 114 33.128 114 22.0531C114 10.9781 105.046 2 94 2C82.9543 2 74 10.9781 74 22.0531C74 33.128 82.9543 42.1061 94 42.1061Z" fill="url(#paint2_linear)"/>
</g>
<path d="M94 42.5732C105.367 42.5732 114.577 33.3347 114.577 21.9441C114.577 10.5534 105.367 1.31494 94 1.31494C82.6331 1.31494 73.4228 10.5534 73.4228 21.9441C73.4228 33.3347 82.6331 42.5732 94 42.5732Z" fill="#FDF2F2" stroke="white" stroke-width="2"/>
<path d="M94.0552 41.632C97.8809 41.6383 101.624 40.5154 104.817 38.4032C104.096 34.451 101.35 34.2244 101.35 34.2244H86.2116C86.2116 34.2244 83.6229 34.4372 82.8118 38.0744C86.1033 40.3958 90.031 41.6386 94.0552 41.632V41.632Z" fill="#84E1BC"/>
<path opacity="0.1" d="M90.7987 29.4036H96.8545V34.2607C96.8545 35.0656 96.5355 35.8376 95.9679 36.4068C95.4002 36.976 94.6303 37.2957 93.8274 37.2957V37.2957C93.4298 37.296 93.036 37.2176 92.6685 37.0652C92.3011 36.9128 91.9672 36.6892 91.6859 36.4074C91.4047 36.1255 91.1815 35.7909 91.0293 35.4225C90.8771 35.0542 90.7987 34.6594 90.7987 34.2607V29.4036Z" fill="black"/>
<path d="M91.3769 29.1786H96.2763C96.4296 29.1786 96.5767 29.2397 96.6851 29.3484C96.7935 29.4571 96.8545 29.6046 96.8545 29.7583V34.0357C96.8545 34.8407 96.5355 35.6127 95.9679 36.1818C95.4002 36.751 94.6303 37.0708 93.8274 37.0708V37.0708C93.4298 37.071 93.036 36.9927 92.6685 36.8402C92.3011 36.6878 91.9672 36.4643 91.6859 36.1824C91.4047 35.9006 91.1815 35.5659 91.0293 35.1976C90.8771 34.8293 90.7987 34.4345 90.7987 34.0357V29.7583C90.7987 29.6046 90.8596 29.4571 90.9681 29.3484C91.0765 29.2397 91.2235 29.1786 91.3769 29.1786V29.1786Z" fill="#FDB797"/>
<path opacity="0.1" d="M90.8107 31.6963C92.7624 32.4277 94.9107 32.4338 96.8665 31.7136V30.9678H90.8107V31.6963Z" fill="black"/>
<path d="M93.8481 32.1029C98.6413 32.1029 102.527 28.2069 102.527 23.401C102.527 18.595 98.6413 14.699 93.8481 14.699C89.0549 14.699 85.1692 18.595 85.1692 23.401C85.1692 28.2069 89.0549 32.1029 93.8481 32.1029Z" fill="#FDB797"/>
<path d="M102.303 24.5465C102.749 24.5465 103.11 23.8671 103.11 23.029C103.11 22.1909 102.749 21.5114 102.303 21.5114C101.857 21.5114 101.495 22.1909 101.495 23.029C101.495 23.8671 101.857 24.5465 102.303 24.5465Z" fill="#FDB797"/>
<path d="M91.5218 23.4425H89.3111C88.8965 23.4425 88.5604 23.7795 88.5604 24.1952V24.5517C88.5604 24.9674 88.8965 25.3044 89.3111 25.3044H91.5218C91.9364 25.3044 92.2725 24.9674 92.2725 24.5517V24.1952C92.2725 23.7795 91.9364 23.4425 91.5218 23.4425Z" stroke="#333333" stroke-width="2" stroke-miterlimit="10"/>
<path d="M96.1762 25.3026H98.3869C98.8015 25.3026 99.1376 24.9657 99.1376 24.5499V24.1935C99.1376 23.7778 98.8015 23.4408 98.3869 23.4408H96.1762C95.7616 23.4408 95.4255 23.7778 95.4255 24.1935V24.5499C95.4255 24.9657 95.7616 25.3026 96.1762 25.3026Z" stroke="#333333" stroke-width="2" stroke-miterlimit="10"/>
<path d="M92.131 23.6225C92.131 23.6225 93.308 22.9822 95.4963 23.6225" stroke="#333333" stroke-width="2" stroke-miterlimit="10"/>
<path d="M99.8487 17.0939L101.978 22.0548C101.978 22.0548 104.582 18.7637 99.8487 17.0939Z" fill="#858585"/>
<path d="M99.1376 24.3734L102.317 21.527" stroke="#333333" stroke-width="2" stroke-linecap="round" stroke-linejoin="round"/>
<path d="M87.851 17.0939L85.7214 22.0548C85.7214 22.0548 83.1172 18.7637 87.851 17.0939Z" fill="#858585"/>
<path d="M88.5604 24.3734L85.3383 21.527" stroke="#333333" stroke-width="2" stroke-linecap="round" stroke-linejoin="round"/>
<path d="M138.304 24.5465C138.75 24.5465 139.112 23.8671 139.112 23.029C139.112 22.1909 138.75 21.5115 138.304 21.5115C137.858 21.5115 137.497 22.1909 137.497 23.029C137.497 23.8671 137.858 24.5465 138.304 24.5465Z" fill="#FDB797"/>
<g opacity="0.5">
<path opacity="0.5" d="M130 42.1061C141.046 42.1061 150 33.1281 150 22.0531C150 10.9781 141.046 2 130 2C118.954 2 110 10.9781 110 22.0531C110 33.1281 118.954 42.1061 130 42.1061Z" fill="url(#paint3_linear)"/>
</g>
<path d="M130 42.5732C141.367 42.5732 150.577 33.3347 150.577 21.9441C150.577 10.5534 141.367 1.31494 130 1.31494C118.633 1.31494 109.423 10.5534 109.423 21.9441C109.423 33.3347 118.633 42.5732 130 42.5732Z" fill="#FDF2F2" stroke="white" stroke-width="2"/>
<path d="M140.829 23.709C140.829 30.9384 136.125 38.9863 130.321 38.9863C124.517 38.9863 119.818 30.9384 119.818 23.709C119.818 16.4796 124.522 12.8078 130.326 12.8078C136.13 12.8078 140.829 16.4813 140.829 23.709Z" fill="#FDD835"/>
<path d="M130.055 41.6337C133.881 41.64 137.624 40.5171 140.817 38.4049C140.096 34.4528 137.35 34.2261 137.35 34.2261H122.213C122.213 34.2261 119.625 34.4389 118.814 38.0761C122.105 40.3972 126.032 41.6399 130.055 41.6337Z" fill="#6C63FF"/>
<path opacity="0.1" d="M126.8 29.4036H132.856V34.2607C132.856 35.0657 132.537 35.8376 131.97 36.4068C131.402 36.976 130.632 37.2958 129.829 37.2958C129.026 37.2958 128.256 36.976 127.689 36.4068C127.121 35.8376 126.802 35.0657 126.802 34.2607V29.4036H126.8Z" fill="black"/>
<path d="M127.379 29.1786H132.278C132.431 29.1786 132.578 29.2397 132.687 29.3484C132.795 29.4571 132.856 29.6046 132.856 29.7583V34.0357C132.856 34.8407 132.537 35.6127 131.97 36.1818C131.402 36.751 130.632 37.0708 129.829 37.0708V37.0708C129.026 37.0708 128.256 36.751 127.689 36.1818C127.121 35.6127 126.802 34.8407 126.802 34.0357V29.7583C126.802 29.6049 126.863 29.4577 126.971 29.349C127.079 29.2404 127.226 29.1791 127.379 29.1786Z" fill="#FDB797"/>
<path opacity="0.1" d="M126.812 31.6963C128.764 32.4277 130.912 32.4338 132.868 31.7136V30.9679H126.812V31.6963Z" fill="black"/>
<path d="M129.85 32.1029C134.643 32.1029 138.529 28.2069 138.529 23.401C138.529 18.595 134.643 14.699 129.85 14.699C125.057 14.699 121.171 18.595 121.171 23.401C121.171 28.2069 125.057 32.1029 129.85 32.1029Z" fill="#FDB797"/>
<path d="M121.35 24.5465C121.797 24.5465 122.158 23.8671 122.158 23.029C122.158 22.1909 121.797 21.5115 121.35 21.5115C120.904 21.5115 120.543 22.1909 120.543 23.029C120.543 23.8671 120.904 24.5465 121.35 24.5465Z" fill="#FDB797"/>
<path opacity="0.1" d="M122.16 18.6806C122.16 18.6806 127.066 25.4134 138.318 23.1138C138.318 23.1138 139.575 21.5807 136.517 16.8741C133.458 12.1676 124.943 12.9341 122.16 18.6806Z" fill="black"/>
<path d="M122.16 18.5716C122.16 18.5716 127.066 25.3044 138.318 23.0047C138.318 23.0047 139.575 21.4716 136.517 16.7651C133.458 12.0585 124.943 12.8251 122.16 18.5716Z" fill="#FDD835"/>
<path d="M174.303 24.5465C174.749 24.5465 175.11 23.8671 175.11 23.029C175.11 22.1909 174.749 21.5115 174.303 21.5115C173.857 21.5115 173.495 22.1909 173.495 23.029C173.495 23.8671 173.857 24.5465 174.303 24.5465Z" fill="#BE7C5E"/>
<g opacity="0.5">
<path opacity="0.5" d="M166 42.1061C177.046 42.1061 186 33.1281 186 22.0531C186 10.9781 177.046 2 166 2C154.954 2 146 10.9781 146 22.0531C146 33.1281 154.954 42.1061 166 42.1061Z" fill="url(#paint4_linear)"/>
</g>
<path d="M166 42.5732C177.367 42.5732 186.577 33.3347 186.577 21.9441C186.577 10.5534 177.367 1.31494 166 1.31494C154.633 1.31494 145.423 10.5534 145.423 21.9441C145.423 33.3347 154.633 42.5732 166 42.5732Z" fill="#FDF2F2" stroke="white" stroke-width="2"/>
<path d="M158.363 22.1188C158.363 22.1188 156.144 33.0824 154.933 32.475C154.933 32.475 166.616 42.5941 176.933 32.475C176.933 32.475 175.116 24.749 172.492 22.1188H158.363Z" fill="#333333"/>
<path d="M166.055 41.632C169.881 41.6383 173.624 40.5154 176.817 38.4032C176.096 34.451 173.35 34.2244 173.35 34.2244H158.212C158.212 34.2244 155.623 34.4372 154.812 38.0744C158.103 40.3958 162.031 41.6386 166.055 41.632V41.632Z" fill="#F8B4D9"/>
<path d="M165.848 30.2134C170.641 30.2134 174.527 26.3174 174.527 21.5115C174.527 16.7055 170.641 12.8095 165.848 12.8095C161.055 12.8095 157.169 16.7055 157.169 21.5115C157.169 26.3174 161.055 30.2134 165.848 30.2134Z" fill="#333333"/>
<path opacity="0.1" d="M162.799 29.4036H168.854V34.2607C168.854 35.0647 168.536 35.8359 167.97 36.405C167.403 36.974 166.635 37.2944 165.833 37.2957C165.03 37.2957 164.26 36.976 163.692 36.4068C163.125 35.8376 162.806 35.0656 162.806 34.2607V29.4036H162.799Z" fill="black"/>
<path d="M163.377 29.1786H168.276C168.43 29.1786 168.577 29.2397 168.685 29.3484C168.794 29.4571 168.854 29.6046 168.854 29.7583V34.0358C168.854 34.8398 168.536 35.611 167.97 36.18C167.403 36.749 166.635 37.0694 165.833 37.0708C165.03 37.0708 164.26 36.751 163.692 36.1818C163.124 35.6127 162.806 34.8407 162.806 34.0358V29.7566C162.806 29.6043 162.866 29.4584 162.973 29.3502C163.08 29.2421 163.225 29.1805 163.377 29.1786Z" fill="#BE7C5E"/>
<path opacity="0.1" d="M162.811 31.6963C164.762 32.4277 166.911 32.4338 168.867 31.7136V30.9678H162.811V31.6963Z" fill="black"/>
<path d="M165.848 32.1012C170.641 32.1012 174.527 28.2052 174.527 23.3993C174.527 18.5933 170.641 14.6973 165.848 14.6973C161.055 14.6973 157.169 18.5933 157.169 23.3993C157.169 28.2052 161.055 32.1012 165.848 32.1012Z" fill="#BE7C5E"/>
<path d="M157.552 20.0943H174.103C174.103 20.0943 172.689 13.3944 166.433 13.8218C160.177 14.2492 157.552 20.0943 157.552 20.0943Z" fill="#333333"/>
<path d="M157.349 24.5465C157.795 24.5465 158.156 23.8671 158.156 23.029C158.156 22.1909 157.795 21.5115 157.349 21.5115C156.903 21.5115 156.541 22.1909 156.541 23.029C156.541 23.8671 156.903 24.5465 157.349 24.5465Z" fill="#BE7C5E"/>
<path opacity="0.1" d="M157.552 20.3192H174.103C174.103 20.3192 172.689 13.6193 166.433 14.0467C160.177 14.4741 157.552 20.3192 157.552 20.3192Z" fill="black"/>
<path d="M193.167 24.9099C193.614 24.9099 193.975 24.2305 193.975 23.3924C193.975 22.5543 193.614 21.8748 193.167 21.8748C192.721 21.8748 192.36 22.5543 192.36 23.3924C192.36 24.2305 192.721 24.9099 193.167 24.9099Z" fill="#FDA57D"/>
<g opacity="0.5">
<path opacity="0.5" d="M202 42.1061C213.046 42.1061 222 33.1281 222 22.0531C222 10.9781 213.046 2 202 2C190.954 2 182 10.9781 182 22.0531C182 33.1281 190.954 42.1061 202 42.1061Z" fill="url(#paint5_linear)"/>
</g>
<path d="M202.038 42.5541C213.405 42.5541 222.615 33.3157 222.615 21.925C222.615 10.5344 213.405 1.2959 202.038 1.2959C190.671 1.2959 181.461 10.5344 181.461 21.925C181.461 33.3157 190.671 42.5541 202.038 42.5541Z" fill="#FDF2F2" stroke="white" stroke-width="2"/>
<path d="M202.055 41.632C205.879 41.637 209.619 40.5141 212.81 38.4032C212.089 34.451 209.343 34.2244 209.343 34.2244H194.212C194.212 34.2244 191.623 34.4372 190.812 38.0744C194.103 40.3958 198.031 41.6386 202.055 41.632V41.632Z" fill="#F05252"/>
<path d="M201.848 30.9869C207.067 30.9869 211.298 26.7446 211.298 21.5115C211.298 16.2783 207.067 12.036 201.848 12.036C196.629 12.036 192.398 16.2783 192.398 21.5115C192.398 26.7446 196.629 30.9869 201.848 30.9869Z" fill="#F55F44"/>
<path opacity="0.1" d="M198.799 29.4036H204.854V34.2607C204.854 35.0656 204.536 35.8376 203.968 36.4068C203.4 36.9759 202.63 37.2957 201.827 37.2957C201.025 37.2957 200.255 36.9759 199.687 36.4068C199.119 35.8376 198.8 35.0656 198.8 34.2607V29.4036H198.799Z" fill="black"/>
<path d="M199.377 29.1786H204.276C204.352 29.1786 204.427 29.1936 204.498 29.2228C204.568 29.2519 204.631 29.2946 204.685 29.3484C204.739 29.4023 204.781 29.4662 204.81 29.5365C204.839 29.6068 204.854 29.6822 204.854 29.7583V34.0358C204.854 34.4343 204.776 34.829 204.624 35.1972C204.472 35.5654 204.249 35.9 203.968 36.1818C203.687 36.4637 203.353 36.6872 202.986 36.8398C202.619 36.9923 202.225 37.0708 201.827 37.0708V37.0708C201.43 37.0708 201.036 36.9923 200.669 36.8398C200.302 36.6872 199.968 36.4637 199.687 36.1818C199.406 35.9 199.183 35.5654 199.031 35.1972C198.879 34.829 198.8 34.4343 198.8 34.0358V29.7583C198.8 29.6046 198.861 29.4571 198.97 29.3484C199.078 29.2397 199.225 29.1786 199.379 29.1786H199.377Z" fill="#FDA57D"/>
<path opacity="0.1" d="M198.811 31.6963C200.762 32.4277 202.911 32.4338 204.866 31.7136V30.9678H198.811V31.6963Z" fill="black"/>
<path d="M201.848 32.1029C206.641 32.1029 210.527 28.2069 210.527 23.401C210.527 18.595 206.641 14.699 201.848 14.699C197.055 14.699 193.169 18.595 193.169 23.401C193.169 28.2069 197.055 32.1029 201.848 32.1029Z" fill="#FDA57D"/>
<path d="M201.836 15.3756C203.765 15.3756 205.329 13.8076 205.329 11.8734C205.329 9.93916 203.765 8.37115 201.836 8.37115C199.907 8.37115 198.343 9.93916 198.343 11.8734C198.343 13.8076 199.907 15.3756 201.836 15.3756Z" fill="#F55F44"/>
<path d="M201.836 10.7245C203.103 10.7245 204.13 9.69487 204.13 8.42482C204.13 7.15477 203.103 6.12518 201.836 6.12518C200.569 6.12518 199.542 7.15477 199.542 8.42482C199.542 9.69487 200.569 10.7245 201.836 10.7245Z" fill="#F55F44"/>
<path d="M200.321 13.7941C199.501 13.4255 198.855 12.7546 198.516 11.9207C198.177 11.0868 198.171 10.1539 198.5 9.31595C198.476 9.3644 198.452 9.41458 198.429 9.46476C198.242 9.88446 198.138 10.3371 198.125 10.7969C198.112 11.2567 198.189 11.7146 198.352 12.1445C198.515 12.5744 198.761 12.9679 199.076 13.3024C199.391 13.637 199.768 13.9061 200.187 14.0943C200.606 14.2826 201.057 14.3863 201.516 14.3997C201.974 14.413 202.431 14.3356 202.86 14.1719C203.288 14.0083 203.681 13.7616 204.015 13.4459C204.348 13.1302 204.617 12.7517 204.804 12.332C204.827 12.2818 204.848 12.2316 204.868 12.1797C204.463 12.9835 203.764 13.5997 202.917 13.9004C202.07 14.2011 201.14 14.163 200.321 13.7941Z" fill="#F55F44"/>
<path opacity="0.1" d="M195.668 15.4864C195.668 15.4864 199.325 22.9269 209.647 18.601L207.245 14.8237L202.987 13.2906L195.668 15.4864Z" fill="black"/>
<path d="M195.668 15.3756C195.668 15.3756 199.325 22.8162 209.647 18.4903L207.245 14.7129L202.987 13.1798L195.668 15.3756Z" fill="#F55F44"/>
<path d="M198.486 12.6659C200.737 12.4884 202.997 12.4884 205.248 12.6659C205.248 12.6659 200.253 13.1314 198.486 12.6659Z" fill="#333333"/>
<path d="M202.361 5.98498C202.187 5.9786 202.013 5.99195 201.843 6.02478H201.976C202.541 6.04289 203.079 6.26963 203.487 6.66143C203.895 7.05322 204.145 7.58245 204.188 8.14747C204.231 8.71248 204.064 9.27343 203.719 9.72256C203.375 10.1717 202.877 10.4773 202.321 10.5808C202.929 10.5863 203.514 10.3495 203.948 9.92244C204.381 9.49539 204.628 8.9131 204.634 8.30366C204.639 7.69421 204.403 7.10754 203.977 6.67271C203.551 6.23787 202.97 5.99049 202.362 5.98498H202.361Z" fill="#F55F44"/>
<path d="M210.527 24.9099C210.973 24.9099 211.335 24.2305 211.335 23.3924C211.335 22.5543 210.973 21.8748 210.527 21.8748C210.081 21.8748 209.719 22.5543 209.719 23.3924C209.719 24.2305 210.081 24.9099 210.527 24.9099Z" fill="#FDA57D"/>
<path d="M195.121 15.5954L196.814 14.7198L197.195 16.1232L196.158 16.8309L195.121 15.5954Z" fill="#F55F44"/>
<path d="M229.168 24.9081C229.614 24.9081 229.975 24.2287 229.975 23.3906C229.975 22.5525 229.614 21.8731 229.168 21.8731C228.721 21.8731 228.36 22.5525 228.36 23.3906C228.36 24.2287 228.721 24.9081 229.168 24.9081Z" fill="#FDA57D"/>
<g opacity="0.5">
<path opacity="0.5" d="M238 42.1061C249.046 42.1061 258 33.128 258 22.0531C258 10.9781 249.046 2 238 2C226.954 2 218 10.9781 218 22.0531C218 33.128 226.954 42.1061 238 42.1061Z" fill="url(#paint6_linear)"/>
</g>
<path d="M238.038 42.5524C249.405 42.5524 258.615 33.3139 258.615 21.9233C258.615 10.5326 249.405 1.29416 238.038 1.29416C226.671 1.29416 217.461 10.5326 217.461 21.9233C217.461 33.3139 226.671 42.5524 238.038 42.5524Z" fill="#FDF2F2" stroke="white" stroke-width="2"/>
<path d="M238.055 41.632C241.881 41.6383 245.624 40.5154 248.817 38.4032C248.094 34.4493 245.35 34.2226 245.35 34.2226H230.213C230.213 34.2226 227.625 34.4355 226.814 38.0727C230.104 40.3944 234.031 41.6377 238.055 41.632V41.632Z" fill="#FF5A1F"/>
<path d="M237.85 30.9851C243.069 30.9851 247.3 26.7428 247.3 21.5097C247.3 16.2766 243.069 12.0343 237.85 12.0343C232.631 12.0343 228.4 16.2766 228.4 21.5097C228.4 26.7428 232.631 30.9851 237.85 30.9851Z" fill="#72351C"/>
<path opacity="0.1" d="M234.799 29.4019H240.854V34.259C240.855 34.658 240.777 35.0532 240.626 35.422C240.474 35.7908 240.251 36.126 239.97 36.4084C239.689 36.6908 239.355 36.9148 238.987 37.0677C238.619 37.2205 238.225 37.2992 237.827 37.2992V37.2992C237.025 37.2992 236.255 36.9794 235.687 36.4102C235.119 35.8411 234.8 35.0691 234.8 34.2641V29.4019H234.799Z" fill="black"/>
<path d="M235.372 29.1769H240.271C240.424 29.1769 240.572 29.238 240.68 29.3467C240.788 29.4554 240.849 29.6029 240.849 29.7566V34.034C240.849 34.839 240.53 35.611 239.963 36.1801C239.395 36.7493 238.625 37.0691 237.822 37.0691C237.019 37.0691 236.25 36.7493 235.682 36.1801C235.114 35.611 234.795 34.839 234.795 34.034V29.7566C234.795 29.6029 234.856 29.4554 234.965 29.3467C235.073 29.238 235.22 29.1769 235.373 29.1769H235.372Z" fill="#FDA57D"/>
<path opacity="0.1" d="M234.806 31.6946C236.757 32.4259 238.906 32.4321 240.861 31.7119V30.9661H234.806V31.6946Z" fill="black"/>
<path d="M237.85 32.1012C242.643 32.1012 246.529 28.2052 246.529 23.3993C246.529 18.5933 242.643 14.6973 237.85 14.6973C233.057 14.6973 229.171 18.5933 229.171 23.3993C229.171 28.2052 233.057 32.1012 237.85 32.1012Z" fill="#FDA57D"/>
<path opacity="0.1" d="M231.668 15.4846C231.668 15.4846 235.325 22.9252 245.647 18.5993L243.245 14.8219L238.987 13.2888L231.668 15.4846Z" fill="black"/>
<path d="M231.668 15.3756C231.668 15.3756 235.325 22.8161 245.647 18.4903L243.245 14.7129L238.987 13.1798L231.668 15.3756Z" fill="#72351C"/>
<path d="M231.635 14.8721C231.882 14.1067 232.308 13.4119 232.878 12.8458C234.585 11.1536 237.384 10.7971 238.82 8.86603C238.898 9.0027 238.946 9.15424 238.962 9.3109C238.978 9.46755 238.961 9.62582 238.913 9.7755C238.864 9.92518 238.784 10.0629 238.679 10.1799C238.574 10.2968 238.445 10.3904 238.302 10.4545C239.683 10.4458 241.272 10.3247 242.049 9.1896C242.241 9.63816 242.302 10.1322 242.226 10.6143C242.149 11.0964 241.937 11.5468 241.616 11.9132C242.834 11.9686 244.135 12.7974 244.215 14.019C244.266 14.8323 243.759 15.6023 243.091 16.0695C242.423 16.5367 241.619 16.7461 240.825 16.9191C238.509 17.4382 230.124 19.5856 231.635 14.8721Z" fill="#72351C"/>
<path d="M246.529 23.4754H246.299L241.823 27.4742C237.508 25.4497 234.343 27.4742 234.343 27.4742L229.649 23.6432L229.176 23.7021C229.24 25.9861 230.198 28.1532 231.842 29.7354C233.486 31.3177 235.684 32.1881 237.963 32.1588C240.242 32.1295 242.417 31.2028 244.02 29.5788C245.623 27.9548 246.525 25.7637 246.531 23.4789L246.529 23.4754ZM237.838 29.0039C236.15 29.0039 234.781 28.6578 234.781 28.2373C234.781 27.8169 236.15 27.4708 237.838 27.4708C239.526 27.4708 240.894 27.8169 240.894 28.2373C240.894 28.6578 239.526 29.0039 237.836 29.0039H237.838Z" fill="#72351C"/>
<path d="M246.527 24.9081C246.973 24.9081 247.335 24.2287 247.335 23.3906C247.335 22.5525 246.973 21.8731 246.527 21.8731C246.081 21.8731 245.719 22.5525 245.719 23.3906C245.719 24.2287 246.081 24.9081 246.527 24.9081Z" fill="#FDA57D"/>
<g opacity="0.5">
<path opacity="0.5" d="M274 42.1061C285.046 42.1061 294 33.1281 294 22.0531C294 10.9781 285.046 2 274 2C262.954 2 254 10.9781 254 22.0531C254 33.1281 262.954 42.1061 274 42.1061Z" fill="url(#paint7_linear)"/>
</g>
<path d="M274.038 42.5541C285.405 42.5541 294.615 33.3157 294.615 21.925C294.615 10.5344 285.405 1.2959 274.038 1.2959C262.671 1.2959 253.461 10.5344 253.461 21.925C253.461 33.3157 262.671 42.5541 274.038 42.5541Z" fill="#FDF2F2" stroke="white" stroke-width="2"/>
<path d="M274.055 41.632C277.88 41.638 281.623 40.515 284.815 38.4032C284.094 34.451 281.348 34.2244 281.348 34.2244H266.205C266.205 34.2244 263.616 34.4372 262.805 38.0744C266.098 40.3972 270.029 41.64 274.055 41.632V41.632Z" fill="#6C63FF"/>
<path d="M273.848 30.9869C279.067 30.9869 283.298 26.7446 283.298 21.5115C283.298 16.2783 279.067 12.036 273.848 12.036C268.629 12.036 264.398 16.2783 264.398 21.5115C264.398 26.7446 268.629 30.9869 273.848 30.9869Z" fill="#333333"/>
<path opacity="0.1" d="M270.799 29.4036H276.854V34.2607C276.854 35.0656 276.536 35.8376 275.968 36.4068C275.4 36.9759 274.63 37.2957 273.827 37.2957V37.2957C273.025 37.2957 272.255 36.9759 271.687 36.4068C271.119 35.8376 270.8 35.0656 270.8 34.2607V29.4036H270.799Z" fill="black"/>
<path d="M271.377 29.1786H276.276C276.43 29.1786 276.577 29.2397 276.685 29.3484C276.794 29.4571 276.854 29.6045 276.854 29.7583V34.0392C276.854 34.8441 276.536 35.6161 275.968 36.1853C275.4 36.7544 274.63 37.0742 273.827 37.0742C273.43 37.0744 273.036 36.9961 272.669 36.8437C272.301 36.6913 271.967 36.4677 271.686 36.1859C271.405 35.904 271.181 35.5694 271.029 35.201C270.877 34.8327 270.799 34.4379 270.799 34.0392V29.7565C270.799 29.6028 270.86 29.4554 270.968 29.3467C271.076 29.238 271.223 29.1769 271.377 29.1769V29.1786Z" fill="#FDB797"/>
<path opacity="0.1" d="M270.811 31.6963C272.762 32.4277 274.911 32.4338 276.866 31.7136V30.9626H270.811V31.6963Z" fill="black"/>
<path d="M273.848 32.1029C278.641 32.1029 282.527 28.2069 282.527 23.401C282.527 18.595 278.641 14.699 273.848 14.699C269.055 14.699 265.169 18.595 265.169 23.401C265.169 28.2069 269.055 32.1029 273.848 32.1029Z" fill="#FDB797"/>
<path opacity="0.1" d="M267.668 15.4846C267.668 15.4846 271.325 22.9251 281.647 18.5992L279.245 14.8219L274.987 13.2888L267.668 15.4846Z" fill="black"/>
<path d="M267.668 15.3756C267.668 15.3756 271.325 22.8161 281.647 18.4903L279.245 14.7129L274.987 13.1798L267.668 15.3756Z" fill="#333333"/>
<path d="M267.635 14.8703C267.882 14.105 268.308 13.4101 268.878 12.8441C270.585 11.1518 273.384 10.7954 274.82 8.86429C274.898 9.00096 274.946 9.1525 274.962 9.30915C274.978 9.46581 274.961 9.62408 274.913 9.77376C274.864 9.92344 274.784 10.0612 274.679 10.1782C274.574 10.2951 274.445 10.3886 274.302 10.4528C275.683 10.4441 277.272 10.323 278.049 9.18786C278.241 9.63642 278.302 10.1304 278.226 10.6126C278.149 11.0947 277.937 11.5451 277.616 11.9114C278.834 11.9668 280.135 12.7956 280.215 14.0173C280.266 14.8305 279.759 15.6006 279.091 16.0677C278.423 16.5349 277.617 16.7478 276.823 16.9243C274.507 17.4399 266.124 19.5873 267.635 14.8703Z" fill="#333333"/>
<path d="M265.166 24.9099C265.612 24.9099 265.973 24.2305 265.973 23.3924C265.973 22.5543 265.612 21.8748 265.166 21.8748C264.72 21.8748 264.358 22.5543 264.358 23.3924C264.358 24.2305 264.72 24.9099 265.166 24.9099Z" fill="#FDB797"/>
<path d="M282.525 24.9099C282.971 24.9099 283.333 24.2305 283.333 23.3924C283.333 22.5543 282.971 21.8748 282.525 21.8748C282.079 21.8748 281.718 22.5543 281.718 23.3924C281.718 24.2305 282.079 24.9099 282.525 24.9099Z" fill="#FDB797"/>
<defs>
<linearGradient id="paint0_linear" x1="15683.2" y1="30339.9" x2="15683.2" y2="21044.5" gradientUnits="userSpaceOnUse">
<stop stop-color="#808080" stop-opacity="0.25"/>
<stop offset="0.54" stop-color="#808080" stop-opacity="0.12"/>
<stop offset="1" stop-color="#808080" stop-opacity="0.1"/>
</linearGradient>
<linearGradient id="paint1_linear" x1="58" y1="42.1061" x2="58" y2="2.00173" gradientUnits="userSpaceOnUse">
<stop stop-color="#808080" stop-opacity="0.25"/>
<stop offset="0.54" stop-color="#808080" stop-opacity="0.12"/>
<stop offset="1" stop-color="#808080" stop-opacity="0.1"/>
</linearGradient>
<linearGradient id="paint2_linear" x1="26696" y1="19873.4" x2="26696" y2="10578" gradientUnits="userSpaceOnUse">
<stop stop-color="#808080" stop-opacity="0.25"/>
<stop offset="0.54" stop-color="#808080" stop-opacity="0.12"/>
<stop offset="1" stop-color="#808080" stop-opacity="0.1"/>
</linearGradient>
<linearGradient id="paint3_linear" x1="4778.8" y1="29806.9" x2="4778.8" y2="20511.5" gradientUnits="userSpaceOnUse">
<stop stop-color="#808080" stop-opacity="0.25"/>
<stop offset="0.54" stop-color="#808080" stop-opacity="0.12"/>
<stop offset="1" stop-color="#808080" stop-opacity="0.1"/>
</linearGradient>
<linearGradient id="paint4_linear" x1="15544.8" y1="9318.25" x2="15544.8" y2="22.4541" gradientUnits="userSpaceOnUse">
<stop stop-color="#808080" stop-opacity="0.25"/>
<stop offset="0.54" stop-color="#808080" stop-opacity="0.12"/>
<stop offset="1" stop-color="#808080" stop-opacity="0.1"/>
</linearGradient>
<linearGradient id="paint5_linear" x1="15585.2" y1="19662.4" x2="15585.2" y2="10367" gradientUnits="userSpaceOnUse">
<stop stop-color="#808080" stop-opacity="0.25"/>
<stop offset="0.54" stop-color="#808080" stop-opacity="0.12"/>
<stop offset="1" stop-color="#808080" stop-opacity="0.1"/>
</linearGradient>
<linearGradient id="paint6_linear" x1="26667.2" y1="9297.39" x2="26667.2" y2="2" gradientUnits="userSpaceOnUse">
<stop stop-color="#808080" stop-opacity="0.25"/>
<stop offset="0.54" stop-color="#808080" stop-opacity="0.12"/>
<stop offset="1" stop-color="#808080" stop-opacity="0.1"/>
</linearGradient>
<linearGradient id="paint7_linear" x1="4889.6" y1="19358" x2="4889.6" y2="10062.6" gradientUnits="userSpaceOnUse">
<stop stop-color="#808080" stop-opacity="0.25"/>
<stop offset="0.54" stop-color="#808080" stop-opacity="0.12"/>
<stop offset="1" stop-color="#808080" stop-opacity="0.1"/>
</linearGradient>
</defs>
</svg>
