<svg width="144" height="32" viewBox="0 0 144 32" fill="none" xmlns="http://www.w3.org/2000/svg">
  <g clip-path="url(#clip0)">
  <path d="M15.758 26.865C15.7725 27.4021 15.6797 27.9367 15.4852 28.4376C15.2906 28.9384 14.9982 29.3955 14.625 29.782C14.2521 30.1668 13.8057 30.4728 13.3124 30.682C12.8191 30.8913 12.2888 30.9994 11.753 31C11.217 31.0002 10.6865 30.8924 10.1931 30.6832C9.69967 30.4739 9.25344 30.1674 8.881 29.782C8.5071 29.396 8.21423 28.939 8.01965 28.438C7.82507 27.9371 7.73271 27.4022 7.748 26.865C7.757 26.167 7.948 25.483 8.305 24.884C8.661 24.284 9.168 23.79 9.775 23.451C9.865 23.396 9.751 23.56 9.775 23.451L11.635 21.799C13.1094 20.2298 13.9329 18.1592 13.939 16.006C13.939 13.08 12.228 10.105 9.769 8.549C9.733 8.455 9.863 8.604 9.769 8.549C9.16169 8.20902 8.65494 7.71469 8.3 7.116C7.94384 6.5163 7.75174 5.83344 7.743 5.136C7.72836 4.59872 7.82102 4.06391 8.01556 3.56287C8.21011 3.06183 8.50262 2.60462 8.876 2.218C9.24881 1.83334 9.69498 1.52735 10.1881 1.31815C10.6812 1.10894 11.2113 1.00076 11.747 1C12.283 0.999714 12.8135 1.10742 13.307 1.31668C13.8004 1.52595 14.2466 1.83249 14.619 2.218C14.993 2.60395 15.286 3.06089 15.4806 3.56188C15.6752 4.06288 15.7675 4.59777 15.752 5.135C15.7624 7.30708 16.6019 9.3932 18.099 10.967L18.916 11.767C19.242 12.052 19.584 12.318 19.94 12.565C20.561 12.895 21.082 13.391 21.444 13.996C21.715 14.4489 21.8913 14.9521 21.9622 15.4751C22.0331 15.9982 21.9972 16.5301 21.8566 17.0389C21.716 17.5476 21.4737 18.0225 21.1442 18.4349C20.8148 18.8473 20.4051 19.1885 19.94 19.438C19.877 19.474 19.973 19.371 19.94 19.438C18.6838 20.2321 17.6447 21.3258 16.916 22.621C16.1855 23.9184 15.7877 25.3764 15.758 26.865ZM20.241 5.123C20.241 5.919 20.476 6.698 20.917 7.36C21.3564 8.02107 21.9822 8.53685 22.715 8.842C23.4471 9.14685 24.2535 9.22661 25.0311 9.07112C25.8087 8.91563 26.5224 8.53193 27.081 7.969C27.6413 7.40452 28.0226 6.68728 28.1772 5.9071C28.3318 5.12692 28.2527 4.31848 27.95 3.583C27.6473 2.84836 27.1337 2.2199 26.474 1.777C25.7039 1.26028 24.7779 1.02768 23.855 1.11909C22.9321 1.2105 22.0698 1.62024 21.416 2.278C20.6641 3.034 20.2417 4.05673 20.241 5.123ZM24.248 22.84C23.456 22.84 22.681 23.076 22.022 23.518C21.3624 23.9609 20.8488 24.5894 20.546 25.324C20.243 26.0596 20.1639 26.8683 20.3185 27.6486C20.4731 28.429 20.8545 29.1464 21.415 29.711C21.9736 30.2739 22.6873 30.6576 23.4649 30.8131C24.2426 30.9686 25.0489 30.8888 25.781 30.584C26.5144 30.2785 27.1406 29.762 27.58 29.1C28.0948 28.3249 28.3261 27.3959 28.235 26.47C28.1439 25.544 27.7359 24.6779 27.08 24.018C26.7088 23.6446 26.2676 23.3482 25.7816 23.1457C25.2957 22.9432 24.7745 22.8386 24.248 22.838V22.84ZM34.5 15.994C34.5 15.198 34.265 14.42 33.825 13.758C33.3857 13.0966 32.7599 12.5804 32.027 12.275C31.2948 11.9699 30.4882 11.8901 29.7104 12.0456C28.9325 12.2011 28.2187 12.5849 27.66 13.148C27.0995 13.7126 26.7181 14.43 26.5635 15.2104C26.4089 15.9907 26.4881 16.7994 26.791 17.535C27.0937 18.2696 27.6073 18.8981 28.267 19.341C28.9252 19.783 29.7001 20.019 30.493 20.019C31.0195 20.0182 31.5406 19.9136 32.0265 19.7111C32.5125 19.5086 32.9537 19.2123 33.325 18.839C34.077 18.0826 34.4994 17.0596 34.5 15.993V15.994Z" fill="#6A737D"/>
  <path d="M5.507 11.969C4.714 11.969 3.94 12.205 3.281 12.647C2.62122 13.0902 2.10759 13.719 1.805 14.454C1.50227 15.1895 1.42324 15.9979 1.57782 16.7781C1.73239 17.5583 2.1137 18.2755 2.674 18.84C3.2334 19.4017 3.94703 19.7845 4.72435 19.9399C5.50167 20.0953 6.30764 20.0164 7.04 19.713C7.77291 19.4075 8.39867 18.8914 8.838 18.23C9.35243 17.4552 9.58362 16.5265 9.49252 15.601C9.40142 14.6754 8.99361 13.8097 8.338 13.15C7.96691 12.7767 7.52585 12.4803 7.04008 12.2776C6.55431 12.075 6.03335 11.9701 5.507 11.969V11.969Z" fill="#6A737D"/>
  <path d="M59.164 11.136L57.124 18.528L54.94 11.136H52.012L49.828 18.504L47.788 11.136H44.5L48.316 23.136H51.268L53.476 15.864L55.684 23.136H58.636L62.452 11.136H59.164V11.136ZM69.364 23.472C72.892 23.472 75.724 20.712 75.724 17.136C75.724 13.56 72.892 10.8 69.364 10.8C65.836 10.8 63.028 13.56 63.028 17.136C63.028 20.712 65.836 23.472 69.364 23.472ZM69.364 20.448C67.54 20.448 66.124 19.08 66.124 17.136C66.124 15.192 67.54 13.824 69.364 13.824C71.212 13.824 72.628 15.192 72.628 17.136C72.628 19.08 71.212 20.448 69.364 20.448ZM80.998 13.2V11.136H77.902V23.136H80.998V17.4C80.998 14.88 83.038 14.16 84.646 14.352V10.896C83.134 10.896 81.622 11.568 80.998 13.2ZM97.52 23.136L92.553 17.064L97.377 11.136H93.68L89.552 16.416V6.336H86.456V23.136H89.552V17.688L93.92 23.136H97.52V23.136ZM105.522 6C101.706 6 99.882 7.704 99.882 11.016V11.136H98.154V14.112H99.882V23.136H102.978V14.112H104.97V11.136H102.978V11.016C102.978 9.384 103.914 8.712 105.522 8.712C105.834 8.712 106.17 8.712 106.506 8.736V23.136H109.602V6.504C108.282 6.24 107.034 6 105.522 6ZM118.137 23.472C121.665 23.472 124.497 20.712 124.497 17.136C124.497 13.56 121.665 10.8 118.137 10.8C114.609 10.8 111.801 13.56 111.801 17.136C111.801 20.712 114.609 23.472 118.137 23.472ZM118.137 20.448C116.313 20.448 114.897 19.08 114.897 17.136C114.897 15.192 116.313 13.824 118.137 13.824C119.985 13.824 121.401 15.192 121.401 17.136C121.401 19.08 119.985 20.448 118.137 20.448ZM139.719 11.136L137.679 18.528L135.495 11.136H132.567L130.383 18.504L128.343 11.136H125.055L128.871 23.136H131.823L134.031 15.864L136.239 23.136H139.191L143.007 11.136H139.719V11.136Z" fill="#6A737D"/>
  </g>
  <defs>
  <clipPath id="clip0">
  <rect width="143" height="32" fill="white" transform="translate(0.5)"/>
  </clipPath>
  </defs>
</svg>
